<svg width="32" height="36" viewBox="0 0 32 36" fill="none" xmlns="http://www.w3.org/2000/svg">
<path d="M31.3156 10.0172L20.0696 0.127725C19.9693 0.0456158 19.8508 0 19.7231 0H9.32525C8.84184 0 8.61382 0.602129 8.97865 0.930563L11.642 3.27521C11.9065 3.51242 11.87 3.93209 11.5781 4.12366L0.496262 11.1211C0.341209 11.2215 0.25 11.3857 0.25 11.5681V25.5905C0.25 25.7455 0.313846 25.8915 0.432416 25.9919L11.6784 35.8723C11.7788 35.9544 11.8973 36 12.025 36H22.4227C22.9062 36 23.1342 35.3979 22.7694 35.0694L20.1061 32.7248C19.8415 32.4876 19.8781 32.0679 20.1699 31.8763L31.2426 24.8606C31.3978 24.7602 31.4889 24.5961 31.4889 24.4136V10.3913C31.4889 10.2362 31.4251 10.0902 31.3065 9.98987L31.3156 10.0172ZM19.112 23.1363C18.9568 23.2366 18.8657 23.4009 18.8657 23.5834V30.4896C18.8657 30.9457 18.3275 31.183 17.99 30.891L3.8345 18.4471L12.627 12.8819C12.782 12.7816 12.8733 12.6173 12.8733 12.4348V5.52863C12.8733 5.07248 13.4114 4.83527 13.7489 5.12722L27.9044 17.562L19.112 23.1272V23.1363Z" fill="white"/>
</svg>
