<svg width="10" height="10" viewBox="0 0 10 10" fill="none" xmlns="http://www.w3.org/2000/svg">
<path fill-rule="evenodd" clip-rule="evenodd" d="M9.56756 1.30032C9.80713 1.0608 9.80713 0.672456 9.56756 0.432936C9.32809 0.193416 8.93972 0.193416 8.70026 0.432936L5.00058 4.13258L1.30094 0.432936C1.06141 0.193416 0.673066 0.193416 0.433546 0.432936C0.194026 0.672456 0.194026 1.0608 0.433546 1.30032L4.13319 4.99997L0.433546 8.6996C0.194026 8.93918 0.194026 9.32744 0.433546 9.56701C0.673066 9.80648 1.06141 9.80648 1.30094 9.56701L5.00058 5.86735L8.70026 9.56701C8.93972 9.80648 9.32809 9.80648 9.56756 9.56701C9.80713 9.32744 9.80713 8.93918 9.56756 8.6996L5.86796 4.99997L9.56756 1.30032Z" fill="#387F5C"/>
</svg>
