<svg width="16" height="14" viewBox="0 0 16 14" fill="none" xmlns="http://www.w3.org/2000/svg">
<path fill-rule="evenodd" clip-rule="evenodd" d="M14.2438 1.51043C14.4521 1.30215 14.4521 0.964469 14.2438 0.756192C14.0355 0.547904 13.6978 0.547904 13.4895 0.756192L11.395 2.85077C10.3536 2.43114 9.21343 2.19998 8 2.19998C4.59505 2.19998 1.76682 4.02012 0.0810669 6.71732C-0.0270227 6.89027 -0.0270223 7.10972 0.0810682 7.28266C0.963141 8.69397 2.15802 9.86515 3.58465 10.6611L1.75621 12.4895C1.54793 12.6978 1.54793 13.0355 1.75621 13.2438C1.96449 13.452 2.30218 13.452 2.51045 13.2438L4.60505 11.1492C5.64638 11.5688 6.78657 11.8 8 11.8C11.4049 11.8 14.2332 9.97982 15.9189 7.28266C16.027 7.10972 16.027 6.89027 15.9189 6.71732C15.0369 5.30601 13.842 4.13482 12.4154 3.33887L14.2438 1.51043ZM10.5646 3.68116C9.76354 3.41182 8.9041 3.26664 8 3.26664C5.12304 3.26664 2.69815 4.73668 1.1693 6.99999C1.9977 8.22633 3.08916 9.21978 4.37306 9.87262L10.5646 3.68116ZM5.43543 10.3188L11.627 4.12729C12.9108 4.78018 14.0023 5.77364 14.8307 6.99999C13.3019 9.26326 10.8769 10.7333 8 10.7333C7.0959 10.7333 6.23646 10.5881 5.43543 10.3188Z" fill="black"/>
</svg>
