<svg width="16" height="10" viewBox="0 0 16 10" fill="none" xmlns="http://www.w3.org/2000/svg">
<path fill-rule="evenodd" clip-rule="evenodd" d="M8 8.73335C5.12304 8.73335 2.69815 7.26331 1.1693 5.00002C2.69815 2.73672 5.12304 1.26668 8 1.26668C10.8769 1.26668 13.3019 2.73672 14.8307 5.00002C13.3019 7.2633 10.8769 8.73335 8 8.73335ZM8 0.200012C4.59505 0.200012 1.76682 2.02015 0.0810669 4.71736C-0.0270227 4.89031 -0.0270223 5.10975 0.0810682 5.28269C1.76682 7.97985 4.59505 9.80001 8 9.80001C11.4049 9.80001 14.2332 7.97985 15.9189 5.28269C16.027 5.10975 16.027 4.89031 15.9189 4.71736C14.2332 2.02015 11.4049 0.200012 8 0.200012ZM8 7.13335C9.17821 7.13335 10.1333 6.17822 10.1333 5.00001C10.1333 3.8218 9.17821 2.86668 8 2.86668C6.82179 2.86668 5.86667 3.8218 5.86667 5.00001C5.86667 6.17822 6.82179 7.13335 8 7.13335Z" fill="black"/>
</svg>
