<svg width="24" height="24" viewBox="0 0 24 24" fill="none" xmlns="http://www.w3.org/2000/svg">
<circle cx="12" cy="12" r="12" fill="white"/>
<g clip-path="url(#clip0_4087_71371)">
<mask id="mask0_4087_71371" style="mask-type:luminance" maskUnits="userSpaceOnUse" x="4" y="6" width="16" height="14">
<path d="M12.6197 19.8516V12.6193H19.8516C19.8516 16.6136 16.6138 19.8516 12.6197 19.8516ZM11.5678 19.8516V12.6193H4.33594C4.33594 16.6136 7.57375 19.8516 11.5678 19.8516ZM17.5741 6.67969H12.5942V11.6599C15.3446 11.6599 17.5741 9.43006 17.5741 6.67969ZM11.5689 11.6599V6.67969H6.58904C6.58904 9.43025 8.81872 11.6599 11.5689 11.6599Z" fill="white"/>
</mask>
<g mask="url(#mask0_4087_71371)">
<path d="M2.12457 23.4865L23.9077 23.4865L23.9077 1.70209L2.12457 1.70209L2.12457 23.4865Z" fill="#1F52F5"/>
<path d="M22.1928 11.2473C18.948 10.8672 16.2149 8.45539 14.4751 6.77375C12.4333 4.80003 9.72746 3.87639 8.29819 4.44969C7.31291 4.84478 7.0555 6.10201 7.7807 7.09591C8.50591 8.08981 9.0788 11.5195 8.30352 13.3103C7.41877 15.3539 4.85742 15.4955 4.85742 19.2286V24.6147H24.7622V11.2473H22.193H22.1928Z" fill="#1742CA"/>
<g style="mix-blend-mode:multiply" opacity="0.06">
<path d="M22.1928 11.2473C18.948 10.8672 16.2149 8.45539 14.4751 6.77375C12.4333 4.80003 9.72746 3.87639 8.29819 4.44969C7.31291 4.84478 7.0555 6.10201 7.7807 7.09591C8.50591 8.08981 9.0788 11.5195 8.30352 13.3103C7.41877 15.3539 4.85742 15.4955 4.85742 19.2286V24.6147H24.7622V11.2473H22.193H22.1928Z" fill="#1742CA"/>
</g>
<path d="M8.72355 21.5496C8.72355 21.5496 5.94744 19.7107 6.44494 18.5786C6.99022 17.3379 8.76182 17.65 10.002 16.6064C11.259 15.5487 10.9668 13.79 10.3236 12.245C9.44914 10.1443 8.52764 8.11444 10.03 6.37892C10.9136 5.35817 12.7418 5.64358 13.7665 7.27019C14.7542 8.83797 16.0904 10.9663 17.7274 11.0541C18.9082 11.1173 20.7969 11.5219 22.551 14.0112H24.711V24.3924H8.72355V21.5496Z" fill="#1337AE"/>
<g style="mix-blend-mode:multiply" opacity="0.06">
<path d="M8.72355 21.5496C8.72355 21.5496 5.94744 19.7107 6.44494 18.5786C6.99022 17.3379 8.76182 17.65 10.002 16.6064C11.259 15.5487 10.9668 13.79 10.3236 12.245C9.44914 10.1443 8.52764 8.11444 10.03 6.37892C10.9136 5.35817 12.7418 5.64358 13.7665 7.27019C14.7542 8.83797 16.0904 10.9663 17.7274 11.0541C18.9082 11.1173 20.7969 11.5219 22.551 14.0112H24.711V24.3924H8.72355V21.5496Z" fill="#1337AE"/>
</g>
<path d="M9.95539 22.5911C8.78448 19.4435 10.8811 19.1134 11.914 18.7613C12.947 18.4093 14.0031 17.8211 14.0186 16.4068C14.0349 14.9158 13.0801 14.4567 12.3524 13.4449C11.6247 12.4331 9.74444 10.9596 11.0654 9.78954C12.1276 8.84857 13.9647 11.248 15.6713 11.248C17.378 11.248 21.1303 12.4007 21.6784 13.3116L23.1985 13.5822V22.5911H9.95539Z" fill="#0F2D91"/>
<g style="mix-blend-mode:multiply" opacity="0.06">
<path d="M9.95539 22.5911C8.78448 19.4435 10.8811 19.1134 11.914 18.7613C12.947 18.4093 14.0031 17.8211 14.0186 16.4068C14.0349 14.9158 13.0801 14.4567 12.3524 13.4449C11.6247 12.4331 9.74444 10.9596 11.0654 9.78954C12.1276 8.84857 13.9647 11.248 15.6713 11.248C17.378 11.248 21.1303 12.4007 21.6784 13.3116L23.1985 13.5822V22.5911H9.95539Z" fill="#0F2D91"/>
</g>
</g>
</g>
<defs>
<clipPath id="clip0_4087_71371">
<rect width="15.5156" height="13.1719" fill="white" transform="translate(4.33594 6.67969)"/>
</clipPath>
</defs>
</svg>
