<svg width="1370" height="884" viewBox="0 0 1370 884" fill="none" xmlns="http://www.w3.org/2000/svg">
<path opacity="0.8" d="M700.54 597.403C653.309 597.403 622.685 590.247 595.718 571.521C571.188 554.47 554.886 532.242 556.867 500.576C558.543 474.39 573.017 455.664 593.585 441.2C626.189 418.212 663.06 410.599 702.521 414.101C728.726 416.537 753.256 424.149 775.348 438.917C828.368 474.542 828.673 535.744 775.957 571.521C748.837 589.943 718.366 597.098 700.692 597.098L700.54 597.403Z" fill="#246645"/>
<path d="M427.991 523.137C396.149 522.985 371.619 518.418 349.527 504.868C316.161 484.467 308.391 448.538 330.483 416.414C346.328 393.273 368.877 378.81 394.625 369.219C436.219 353.69 478.422 350.493 520.473 366.935C540.127 374.547 556.429 387.031 563.895 407.584C573.341 434.075 562.98 455.998 545.002 474.724C521.539 499.235 491.829 512.48 459.072 519.027C446.731 521.463 434.238 522.376 427.839 523.137H427.991Z" fill="#246645"/>
<path opacity="0.7" d="M949.493 523.865C911.251 523.408 875.6 513.665 844.823 490.98C833.397 482.607 822.884 471.95 814.961 460.227C795.764 431.91 802.011 400.7 829.283 379.842C845.738 367.206 864.935 360.812 885.198 358.528C931.667 353.2 974.937 362.486 1013.64 389.586C1026.43 398.568 1037.25 409.53 1044.87 423.384C1061.32 453.376 1054.01 483.673 1025.82 503.16C1005.71 517.014 978.746 524.322 949.646 523.865H949.493Z" fill="#246645"/>
<path opacity="0.6" d="M1025.52 366.9C984.841 365.378 946.752 357.004 914.299 332.341C904.396 324.881 895.712 314.376 889.465 303.719C879.562 286.82 884.133 269.312 899.064 256.523C914.147 243.582 932.582 237.949 951.779 235.97C995.811 231.251 1037.56 239.32 1075.04 263.679C1086.16 270.986 1096.52 280.73 1104.29 291.539C1119.53 312.701 1114.19 335.233 1092.71 350.001C1078.24 359.897 1061.78 363.855 1044.72 365.834C1038.17 366.596 1031.61 366.596 1025.67 366.9H1025.52Z" fill="#246645"/>
<path opacity="0.1" d="M346.308 366.286C326.959 366.591 308.067 364.307 290.393 355.934C283.232 352.432 276.071 348.017 270.434 342.384C254.284 326.398 255.351 303.866 271.805 284.379C285.67 267.936 303.496 257.127 323.15 249.21C361.392 233.986 400.7 229.114 440.77 240.38C450.369 243.121 459.967 247.688 468.194 253.473C489.22 267.936 493.029 289.707 478.555 310.869C463.928 332.336 442.141 344.363 418.526 353.345C395.367 362.176 371.143 366.591 346.308 366.438V366.286Z" fill="#246645"/>
<path opacity="0.5" d="M869.353 128.18C903.328 128.789 932.429 133.661 958.787 148.581C968.233 153.91 977.374 160.761 984.383 168.83C998.247 184.663 995.352 202.323 978.288 214.807C965.49 224.247 950.712 228.814 935.324 231.098C893.121 237.34 852.746 231.859 814.961 211.306C807.038 207.043 799.725 200.953 793.631 194.254C779.462 178.421 782.052 159.999 799.116 147.363C812.98 137.163 828.978 132.443 845.737 130.007C854.879 128.789 864.02 128.333 869.2 127.876L869.353 128.18Z" fill="#246645"/>
<path opacity="0.2" d="M475.965 233.846C445.798 233.389 425.687 230.953 406.642 222.58C372.819 207.508 369.467 179.799 398.72 157.419C418.983 141.891 442.751 134.583 467.586 130.777C495.924 126.514 524.11 126.666 551.382 136.714C560.067 139.911 568.599 144.783 575.759 150.568C590.233 162.748 590.691 179.647 578.35 194.263C563.723 211.314 543.917 219.992 523.044 225.32C504.608 230.04 485.564 232.171 475.965 233.846Z" fill="#246645"/>
<path opacity="0.3" d="M679.362 185.269C656.052 183.138 633.35 180.093 612.477 169.284C606.078 165.934 599.832 161.824 594.652 156.8C582.006 144.62 582.158 130.005 594.195 117.216C605.621 105.341 620.248 98.9467 635.941 94.9884C677.839 84.3313 718.975 85.397 758.588 103.819C764.226 106.407 769.558 110.061 774.129 114.171C790.736 128.939 790.126 146.904 772.605 160.758C757.37 172.785 739.391 178.418 720.651 181.311C706.939 183.442 693.075 184.051 679.21 185.269H679.362Z" fill="#246645"/>
</svg>
