<svg width="16" height="16" viewBox="0 0 16 16" fill="none" xmlns="http://www.w3.org/2000/svg">
<path fill-rule="evenodd" clip-rule="evenodd" d="M8.00005 10.6676C8.00005 9.19421 9.19446 7.99981 10.6678 7.99981C9.19446 7.99981 8.00005 6.8054 8.00005 5.33203C8.00005 6.8054 6.80565 7.99981 5.33228 7.99981C6.80565 7.99981 8.00005 9.19421 8.00005 10.6676Z" stroke="#246645" stroke-linecap="round" stroke-linejoin="round"/>
<path fill-rule="evenodd" clip-rule="evenodd" d="M12.6267 5.37276C12.6267 4.26773 13.5225 3.37193 14.6275 3.37193C13.5225 3.37193 12.6267 2.47612 12.6267 1.37109C12.6267 2.47612 11.7309 3.37193 10.6259 3.37193C11.1565 3.37193 11.6654 3.58273 12.0407 3.95796C12.4159 4.33319 12.6267 4.84211 12.6267 5.37276V5.37276Z" stroke="#246645" stroke-linecap="round" stroke-linejoin="round"/>
<path d="M14.0026 7.33165V11.3333C14.0026 12.8067 12.8082 14.0011 11.3348 14.0011H4.66534C3.19196 14.0011 1.99756 12.8067 1.99756 11.3333V4.66387C1.99756 3.1905 3.19196 1.99609 4.66534 1.99609H8.667" stroke="#246645" stroke-linecap="round" stroke-linejoin="round"/>
</svg>
