<svg width="24" height="24" viewBox="0 0 24 24" fill="none" xmlns="http://www.w3.org/2000/svg">
<path d="M24 12C24 18.6274 18.6274 24 12 24C5.37258 24 0 18.6274 0 12C0 5.37258 5.37258 0 12 0C18.6274 0 24 5.37258 24 12Z" fill="#F8F8F8"/>
<path d="M6.75 12C6.75 12.8284 6.07843 13.5 5.25 13.5C4.42157 13.5 3.75 12.8284 3.75 12C3.75 11.1716 4.42157 10.5 5.25 10.5C6.07843 10.5 6.75 11.1716 6.75 12Z" fill="#246645"/>
<path d="M11.25 12C11.25 12.8284 10.5784 13.5 9.75 13.5C8.92157 13.5 8.25 12.8284 8.25 12C8.25 11.1716 8.92157 10.5 9.75 10.5C10.5784 10.5 11.25 11.1716 11.25 12Z" fill="#00C767"/>
<path d="M15.75 12C15.75 12.8284 15.0784 13.5 14.25 13.5C13.4216 13.5 12.75 12.8284 12.75 12C12.75 11.1716 13.4216 10.5 14.25 10.5C15.0784 10.5 15.75 11.1716 15.75 12Z" fill="#00C767" fill-opacity="0.5"/>
<path d="M20.25 12C20.25 12.8284 19.5784 13.5 18.75 13.5C17.9216 13.5 17.25 12.8284 17.25 12C17.25 11.1716 17.9216 10.5 18.75 10.5C19.5784 10.5 20.25 11.1716 20.25 12Z" fill="#00C767" fill-opacity="0.2"/>
</svg>
